<svg xmlns="http://www.w3.org/2000/svg" viewBox="0 0 68 60" class="etiPartnerLogo css-1a7okrd" role="img" title="Amex"><title id="provider-amex">American Express</title><path d="M4.08 58.48h-.52a3 3 0 0 1-.08-.7c0-.19 0-.39-.39-.39h-.77v1.09h-.46v-2.65h1.23c.43 0 .89.16.89.74a.69.69 0 0 1-.28.6c.12.07.22.18.23.48v.45c0 .14 0 .16.13.22zm-.57-1.87c0-.34-.23-.37-.4-.37h-.79V57h.74c.24 0 .45-.08.45-.39m2.18.57a2.82 2.82 0 0 0-2.84-2.81 2.82 2.82 0 1 0 0 5.63 2.82 2.82 0 0 0 2.84-2.82m-.43 0a2.37 2.37 0 0 1-2.41 2.41 2.41 2.41 0 1 1 0-4.81 2.37 2.37 0 0 1 2.41 2.4M58.8 39.4h-3.26v1.5h3.27c1.69 0 2.64-.7 2.64-2.21a2 2 0 0 0-.51-1.49 2.8 2.8 0 0 0-1.94-.56h-.91a2 2 0 0 1-.65-.08.54.54 0 0 1-.34-.56.56.56 0 0 1 .25-.51 1.2 1.2 0 0 1 .68-.12h3.08V33.9h-3.37c-1.74 0-2.4 1.1-2.4 2.1 0 2.21 2 2.11 3.54 2.17a.84.84 0 0 1 .59.15.6.6 0 0 1 .21.47.58.58 0 0 1-.2.45 1 1 0 0 1-.68.16M48 35.79a1.65 1.65 0 0 0-.87-1.56 4 4 0 0 0-2-.33h-3.89v7h1.69v-2.56h1.79c.61 0 1 .06 1.23.31a2.08 2.08 0 0 1 .27 1.35v.88h1.69v-1.37a2 2 0 0 0-.28-1.28 1.87 1.87 0 0 0-.82-.59A2 2 0 0 0 48 35.79m-2.21 1a1.6 1.6 0 0 1-.82.14h-2v-1.58H45a1.8 1.8 0 0 1 .8.12.67.67 0 0 1 .35.63.77.77 0 0 1-.36.68zM40.8 23.75a1.61 1.61 0 0 0-.8-1.55 3.9 3.9 0 0 0-2-.34h-3.94v7h1.68v-2.55h1.8c.61 0 1 .05 1.22.3A2.08 2.08 0 0 1 39 28v.88h1.69v-1.4a2 2 0 0 0-.28-1.28 1.9 1.9 0 0 0-.83-.59 2 2 0 0 0 1.22-1.86m-2.19 1a1.65 1.65 0 0 1-.83.14h-2v-1.57h2.02a1.8 1.8 0 0 1 .8.12.64.64 0 0 1 .35.62.74.74 0 0 1-.34.67z"/><path d="M60.83 42.27v-.62a3.9 3.9 0 0 1-2.28.62H44.83V40c0-.27 0-.28-.31-.28h-.21v2.54h-4.52v-2.62a5.8 5.8 0 0 1-2.34.34h-.54v2.3h-5.47l-1.35-1.51-1.42 1.51h-8.89v-9.77h9.06L30.13 34l1.39-1.5h6.06a3.85 3.85 0 0 1 2.37.57v-.57h5.41a4.35 4.35 0 0 1 2.26.57v-.57h8.21v.57a3.2 3.2 0 0 1 2-.57h4.59v.57a3.54 3.54 0 0 1 2.11-.57h3.11V0H7.91v25.11l2-4.64h4.38l.56 1.16v-1.16H20L21.13 23l1.1-2.52h16.3a2.8 2.8 0 0 1 1.9.57v-.57h4.46V21a5.8 5.8 0 0 1 2.8-.57h6.47l.6 1.16v-1.12h4.79l.65 1.16v-1.16h4.66v9.76h-4.71l-.89-1.48v1.48h-5.88l-.64-1.56h-1.45l-.65 1.56h-3.06a5.66 5.66 0 0 1-2.69-.6v.6h-7.25V28c0-.32-.06-.33-.25-.34h-.27v2.55h-14V29l-.51 1.21h-2.94L19.16 29v1.19h-5.65l-.64-1.56h-1.45l-.64 1.56H7.91v29.52h59.74V41.82a5.8 5.8 0 0 1-2.47.45z"/><path d="m13.9 27.29.64 1.56H18v-5.48l2.45 5.48h1.47l2.44-5.47v5.47H26v-7h-2.8l-2 4.75-2.2-4.74h-2.72v6.63l-2.85-6.63h-2.5l-3 7h1.82l.65-1.56zm-1.76-4.24 1.15 2.79H11zm29.64-1.19h1.71v7h-1.71zm-8.89 1.46v-1.46h-5.6v6.99h5.6v-1.44h-3.92v-1.4h3.83v-1.44h-3.83v-1.25zm14.91.04h1.59v-1.5h-1.62a3.4 3.4 0 0 0-2.55.82 3.7 3.7 0 0 0-.91 2.73 3.5 3.5 0 0 0 .9 2.67 3.56 3.56 0 0 0 2.44.77h2l.63-1.56h3.49l.66 1.56h3.42v-5.24L61 28.85h2.37v-7h-1.72v4.87l-2.95-4.86h-2.56v6.62l-2.85-6.62h-2.51l-2.37 5.5h-.75a1.64 1.64 0 0 1-1.17-.36 2.36 2.36 0 0 1-.49-1.64 2.35 2.35 0 0 1 .47-1.59 1.66 1.66 0 0 1 1.33-.41m4.2-.31 1.17 2.79h-2.33zm2.54 12.3V33.9h-5.61v7h5.61v-1.46H50.6v-1.39h3.84v-1.43H50.6v-1.27zM37.62 33.9h-5.36l-2.14 2.29-2.06-2.29H21.3v7H28l2.15-2.32 2.07 2.32h3.26v-2.35h2.09c1.48 0 2.93-.4 2.93-2.34S39 33.9 37.62 33.9M27.1 39.44H23v-1.39h3.69v-1.43H23v-1.27h4.21l1.84 2zm6.66.82-2.58-2.85 2.58-2.76zm3.84-3.13h-2.17v-1.78h2.19c.61 0 1 .24 1 .86s-.37.92-1.02.92m30.05.25-.16-.18a2.8 2.8 0 0 0-1.91-.56h-.91a1.9 1.9 0 0 1-.64-.08.53.53 0 0 1-.37-.52.58.58 0 0 1 .24-.51 1.2 1.2 0 0 1 .68-.12h3.07V33.9H64.3c-1.76 0-2.41 1.07-2.41 2.08 0 2.21 2 2.11 3.55 2.17a.87.87 0 0 1 .59.15.63.63 0 0 1 .2.47.6.6 0 0 1-.2.45 1 1 0 0 1-.68.18h-3.23v1.5h3.24a2.64 2.64 0 0 0 2.29-.9 2.3 2.3 0 0 0 .35-1.31 2.1 2.1 0 0 0-.35-1.31"/></svg>