<svg xmlns="http://www.w3.org/2000/svg" viewBox="0 0 63 40" class="etiPartnerLogo css-gyqdcu" role="img" title="Applepay"><title id="provider-applepay">Apple Pay</title><path d="M63 5v-.53a8 8 0 0 0-.1-1.18 4 4 0 0 0-.37-1.12 4.1 4.1 0 0 0-.7-1 3.8 3.8 0 0 0-1-.69 4 4 0 0 0-1.1-.37A8 8 0 0 0 58.55 0H4.45a8 8 0 0 0-1.18.1 4 4 0 0 0-1.13.38A3.8 3.8 0 0 0 .48 2.12a4 4 0 0 0-.37 1.12A8 8 0 0 0 0 4.42v31.22a8 8 0 0 0 .1 1.17 4 4 0 0 0 .37 1.12 3.8 3.8 0 0 0 1.66 1.64 4 4 0 0 0 1.13.37 8 8 0 0 0 1.18.1h54.1a8 8 0 0 0 1.18-.1 4 4 0 0 0 1.13-.37 3.8 3.8 0 0 0 1-.69 3.75 3.75 0 0 0 1.07-2.07 8 8 0 0 0 .1-1.17V5zm-1.34 29.4v1.15a7 7 0 0 1-.09 1 2.8 2.8 0 0 1-.24.74 2.5 2.5 0 0 1-.45.62 2.3 2.3 0 0 1-.62.44 3 3 0 0 1-.75.25 9 9 0 0 1-1 .08h-54a9 9 0 0 1-1-.08 3 3 0 0 1-.75-.25 2.1 2.1 0 0 1-.62-.45 2.3 2.3 0 0 1-.45-.61 2.8 2.8 0 0 1-.24-.75 6.6 6.6 0 0 1-.09-1V4.45a7 7 0 0 1 .09-1 2.8 2.8 0 0 1 .24-.74 2.7 2.7 0 0 1 .45-.62 2.3 2.3 0 0 1 .62-.44 2.5 2.5 0 0 1 .75-.24 7 7 0 0 1 1-.09h54a9 9 0 0 1 1 .08 3 3 0 0 1 .75.25 2.3 2.3 0 0 1 .62.44 2.5 2.5 0 0 1 .45.62 2.8 2.8 0 0 1 .24.75 6.6 6.6 0 0 1 .09 1v1.18z"/><path d="M17.2 13.45A3.48 3.48 0 0 0 18 11a3.47 3.47 0 0 0-2.31 1.18 3.25 3.25 0 0 0-.83 2.39 2.92 2.92 0 0 0 2.33-1.09m.81 1.24c-1.29-.08-2.38.72-3 .72s-1.56-.69-2.57-.67a3.79 3.79 0 0 0-3.23 1.95c-1.38 2.36-.37 5.87 1 7.79.65 1 1.44 2 2.48 2s1.36-.63 2.55-.63 1.54.63 2.58.61 1.74-.95 2.4-1.91a8.2 8.2 0 0 0 1.07-2.19 3.47 3.47 0 0 1-2.09-3.15 3.52 3.52 0 0 1 1.69-2.95A3.66 3.66 0 0 0 18 14.72m11.21-2.66a4.5 4.5 0 0 1 4.79 4.7 4.55 4.55 0 0 1-4.81 4.71H26v4.89h-2.2v-14.3zM26 19.61h2.57c1.94 0 3.05-1 3.05-2.84s-1.11-2.84-3-2.84H26zm8.54 3.79c0-1.83 1.41-2.95 3.9-3.09l2.88-.16v-.81c0-1.16-.79-1.85-2.11-1.85A2 2 0 0 0 37 19h-2c.12-1.89 1.74-3.28 4.33-3.28s4.18 1.34 4.18 3.43v7.19H41.4v-1.7a3.77 3.77 0 0 1-3.4 1.9 3.17 3.17 0 0 1-3.46-3.14m6.78-.95v-.82l-2.59.16c-1.29.09-2 .65-2 1.55s.75 1.5 1.91 1.5a2.51 2.51 0 0 0 2.68-2.39m4.1 7.74v-1.73a4 4 0 0 0 .7 0A1.75 1.75 0 0 0 48 27s.19-.63.19-.64l-3.8-10.44h2.34l2.66 8.49 2.66-8.49h2.28l-3.94 11c-.9 2.53-1.94 3.34-4.12 3.34a8 8 0 0 1-.85-.07"/></svg>