<svg xmlns="http://www.w3.org/2000/svg" viewBox="0 0 92 12" class="etiPartnerLogo css-mzmzzl" role="img" title="Amadeus"><title id="partner-amadeus">Amadeus</title><path d="M48.605.02a16.8 16.8 0 0 0-4.845.7v10.912a27 27 0 0 0 4.4.348c4.687 0 6.506-1.8 6.506-6.068 0-3.687-2.314-5.9-6.061-5.9M46.4 2.236a12 12 0 0 1 2.047-.194c1.9 0 3.4 1.045 3.4 3.871s-.732 4.035-3.638 4.035a15 15 0 0 1-1.809-.077zm36.77 9.329a17.4 17.4 0 0 0 3.955.416c2.155 0 4.874-.716 4.874-3.571 0-1.858-1.414-2.661-3.7-3.474-1.236-.445-2.294-.852-2.294-1.674 0-.4.306-1.181 1.888-1.181a8.6 8.6 0 0 1 2.966.668l.666-1.936A9.2 9.2 0 0 0 87.64 0c-2.175 0-4.3 1.132-4.3 3.406s2.175 3.058 3.876 3.61c1.157.377 2.126.784 2.126 1.529s-.407 1.365-2.365 1.365a19 19 0 0 1-3.292-.348zM77.426 8.9a8.4 8.4 0 0 1-3.226.8c-1.8 0-2.1-.8-2.1-2.626V.117h-.4a19 19 0 0 0-2.244.165v7.112c0 3.106.781 4.587 4 4.587a8.85 8.85 0 0 0 4-.968 5.7 5.7 0 0 0 2.581.513V.281A21 21 0 0 0 77.94.117h-.524zM35.772.02a12.3 12.3 0 0 0-4.894.91l.564 1.935a12.4 12.4 0 0 1 3.569-.629c1.513 0 2.294.416 2.294 1.877v.832H35c-3.886 0-5.042 1.742-5.042 3.677 0 2.564 2.037 3.377 3.886 3.377a8.05 8.05 0 0 0 3.569-.881 4.86 4.86 0 0 0 2.531.464V3.426C39.944.988 38.4.02 35.762.02m1.562 9.29a9.7 9.7 0 0 1-2.966.648c-1.088 0-1.9-.368-1.9-1.529 0-.968.564-1.6 2.057-1.645l2.768-.1zM5.8.02A12.3 12.3 0 0 0 .91.929l.564 1.935a12.4 12.4 0 0 1 3.569-.639c1.513 0 2.294.416 2.294 1.877v.832H5.042C1.157 4.936 0 6.678 0 8.613c0 2.564 2.037 3.377 3.886 3.377a8.05 8.05 0 0 0 3.569-.881 4.86 4.86 0 0 0 2.531.464V3.426C9.986.988 8.444.02 5.8.02m1.566 9.29a9.7 9.7 0 0 1-2.966.648c-1.088 0-1.9-.368-1.9-1.529 0-.968.564-1.6 2.057-1.645l2.768-.1zm13.18-2.41c-.069.165-.148.484-.208.668a7 7 0 0 0-.208-.668l-2.313-5.806C17.431.126 16.828.01 15.691.01 15.3.01 14.5.059 14.5.059l-1.172 11.747h2.63l.573-7.877 2.511 5.942c.188.464.564.648 1.305.648s1.117-.184 1.305-.648L24.144 3.9l.573 7.906h2.63L26.161.059s-.8-.049-1.186-.049c-1.117 0-1.73.116-2.126 1.084zm37.264 4.539a19.5 19.5 0 0 0 4.6.552 19.8 19.8 0 0 0 4.024-.3v-2a19 19 0 0 1-3.292.271 14.7 14.7 0 0 1-2.719-.213V6.91h5.211V4.916h-5.2v-2.69a16 16 0 0 1 2.551-.184 22 22 0 0 1 3.263.271V.3a19.3 19.3 0 0 0-3.573-.28 20.6 20.6 0 0 0-4.855.513z"/></svg>