<svg xmlns="http://www.w3.org/2000/svg" viewBox="0 0 82 64" class="etiPartnerLogo css-9fmhsk" role="img" title="Mastercard"><title id="provider-mastercard">Mastercard</title><path d="M14.92 63.64V59.4a2.51 2.51 0 0 0-2.65-2.68 2.56 2.56 0 0 0-2.36 1.2 2.48 2.48 0 0 0-2.23-1.2 2.22 2.22 0 0 0-2 1v-.83H4.25v6.75h1.47v-3.75a1.58 1.58 0 0 1 1.65-1.79c1 0 1.47.64 1.47 1.78v3.76h1.47v-3.75A1.59 1.59 0 0 1 12 58.1c1 0 1.48.64 1.48 1.78v3.76zm21.87-6.75H34.4v-2h-1.48v2h-1.37v1.34h1.37v3.08c0 1.56.6 2.5 2.34 2.5a3.4 3.4 0 0 0 1.83-.53L36.66 62a2.7 2.7 0 0 1-1.29.38c-.73 0-1-.45-1-1.13v-3.02h2.39zm12.49-.17a2 2 0 0 0-1.78 1v-.81h-1.45v6.75h1.47v-3.81c0-1.11.47-1.74 1.43-1.74a2.5 2.5 0 0 1 .92.17l.45-1.38a3.1 3.1 0 0 0-1-.18zm-18.88.7a5.07 5.07 0 0 0-2.74-.7c-1.71 0-2.81.82-2.81 2.16 0 1.1.82 1.78 2.33 2l.69.1c.8.11 1.18.32 1.18.7s-.54.82-1.54.82a3.56 3.56 0 0 1-2.23-.7l-.69 1.14a4.85 4.85 0 0 0 2.91.88c1.94 0 3.07-.92 3.07-2.21s-.89-1.81-2.35-2l-.69-.1c-.63-.08-1.14-.21-1.14-.66s.48-.79 1.28-.79a4.3 4.3 0 0 1 2.1.58zm39.22-.7a2 2 0 0 0-1.78 1v-.81h-1.45v6.75h1.47v-3.81c0-1.11.47-1.74 1.43-1.74a2.5 2.5 0 0 1 .92.17l.45-1.38a3.1 3.1 0 0 0-1-.18zm-18.87 3.54a3.41 3.41 0 0 0 3.59 3.55 3.5 3.5 0 0 0 2.42-.81l-.7-1.19a2.94 2.94 0 0 1-1.76.61 2.16 2.16 0 0 1 0-4.32 2.94 2.94 0 0 1 1.76.61l.7-1.19a3.5 3.5 0 0 0-2.42-.8 3.4 3.4 0 0 0-3.59 3.54m13.71 0v-3.37H63v.81a2.58 2.58 0 0 0-2.13-1 3.55 3.55 0 0 0 0 7.09 2.58 2.58 0 0 0 2.13-1v.82h1.46zm-5.44 0a2 2 0 1 1 2 2.16 2 2 0 0 1-2-2.16m-17.67-3.54A3.29 3.29 0 0 0 38 60.26a3.33 3.33 0 0 0 3.45 3.55 4.1 4.1 0 0 0 2.76-1l-.72-1.09a3.2 3.2 0 0 1-2 .71 1.87 1.87 0 0 1-2-1.65h5v-.57c0-2.1-1.31-3.54-3.2-3.54zm0 1.31A1.68 1.68 0 0 1 43 59.67h-3.46A1.72 1.72 0 0 1 41.32 58zm36.73 2.23v-6.09h-1.5v3.53a2.56 2.56 0 0 0-2.12-1 3.55 3.55 0 0 0 0 7.09 2.56 2.56 0 0 0 2.12-1v.82h1.47zm-5.45 0a2 2 0 1 1 2 2.16 2 2 0 0 1-2-2.16m-49.44 0v-3.37H21.7v.81a2.56 2.56 0 0 0-2.12-1 3.55 3.55 0 0 0 0 7.09 2.56 2.56 0 0 0 2.12-1v.82h1.46zm-5.44 0a2 2 0 1 1 2 2.16 2 2 0 0 1-2.03-2.16zm62.77 2.4a.8.8 0 0 1 .26.05.8.8 0 0 1 .22.14.7.7 0 0 1 .14.22.59.59 0 0 1 0 .52.6.6 0 0 1-.14.21 1 1 0 0 1-.22.15.8.8 0 0 1-.26 0 .8.8 0 0 1-.27 0 .7.7 0 0 1-.25-.15.8.8 0 0 1-.15-.21.7.7 0 0 1 0-.52 1 1 0 0 1 .15-.22.7.7 0 0 1 .22-.14.8.8 0 0 1 .27-.05zm0 1.19a.45.45 0 0 0 .2 0 .5.5 0 0 0 .16-.11.4.4 0 0 0 .11-.17.52.52 0 0 0 0-.4.4.4 0 0 0-.11-.17.36.36 0 0 0-.16-.11.45.45 0 0 0-.2 0 .5.5 0 0 0-.21 0 .45.45 0 0 0-.17.11.7.7 0 0 0-.11.17.52.52 0 0 0 0 .4.7.7 0 0 0 .11.17.6.6 0 0 0 .17.11.5.5 0 0 0 .18 0zm0-.84a.24.24 0 0 1 .18.06.17.17 0 0 1 .07.14.15.15 0 0 1-.06.13.2.2 0 0 1-.14.06l.2.24h-.16l-.19-.24h-.06v.24h-.13V63zm-.16.12v.17h.24a.1.1 0 0 0 0-.07.1.1 0 0 0 0-.06h-.09zm-.78-21.95v-.82h.33v-.16h-.84v.16h.33v.82zm1.63 0v-1H81l-.3.68-.29-.68h-.31v1h.18v-.74l.28.64h.19l.28-.64v.74z"/><ellipse cx="25.34" cy="25.43" opacity="0.68" rx="25.34" ry="25.43"/><ellipse cx="41" cy="25.43" opacity="0.7" rx="9.68" ry="19.98"/><path d="M56.66 0A25.2 25.2 0 0 0 41 5.44a25.47 25.47 0 0 1 0 40 25.32 25.32 0 0 0 41-20A25.38 25.38 0 0 0 56.66 0"/></svg>