<svg xmlns="http://www.w3.org/2000/svg" viewBox="0 0 48 31" class="etiPartnerLogo css-jdls1u" role="img" title="Iata"><title id="partner-iata">IATA</title><path d="m6.857 31 1.959-9.829h3.194L10.051 31zm9.629-3.2h2.028l-.549-3.637zM12 31l4.839-9.829h3.154L21.953 31h-2.939l-.2-1.17h-3.141L15.164 31zm12.872 0L26 23.609h-2.842l.47-2.506h8.581l-.47 2.506h-2.655L28 31zm10.687-3.2h2.028l-.509-3.637zM31.112 31l4.8-9.829h3.154L41.025 31h-2.968l-.118-1.17h-3.154l-.5 1.17zM48 10H33.022c-.549 2.782-2.459 5.081-6.279 6.693a3.86 3.86 0 0 0 3.429 2.546h8.15a3.14 3.14 0 0 0 2.616-1.966h-8.259c-.509-.079-.509-.472 0-.55h8.15a3.25 3.25 0 0 0 2.537-1.877h-9.482c-.509-.079-.509-.472 0-.55H43.4c.98 0 1.832-1.13 2.184-1.877H35.128c-.509-.079-.509-.55 0-.59h10.648c.862 0 1.636-.9 2.224-1.877zM0 10h14.978c.549 2.782 2.459 5.081 6.279 6.693a3.86 3.86 0 0 1-3.429 2.546H9.669a3.14 3.14 0 0 1-2.616-1.966h8.268c.509-.079.509-.472 0-.55H7.21a3.25 3.25 0 0 1-2.537-1.877h9.433c.509-.079.509-.472 0-.55H4.6c-.98 0-1.832-1.13-2.184-1.877h10.456c.509-.079.509-.55 0-.59H2.224C1.362 11.873.588 10.969 0 10m19.141-8.27a7 7 0 0 0 1.832 1.17A9.7 9.7 0 0 1 23.236 0a7.53 7.53 0 0 0-4.095 1.73m-2.654 5.514h3.35a10.1 10.1 0 0 1 .9-3.873 8.3 8.3 0 0 1-2.027-1.248 7.62 7.62 0 0 0-2.223 5.121m7.249-3.165v3.165H20.4a9.4 9.4 0 0 1 .862-3.676 7.7 7.7 0 0 0 2.5.511zm5.123-2.349a7 7 0 0 1-1.832 1.17A10.2 10.2 0 0 0 24.764 0a7.53 7.53 0 0 1 4.095 1.73m2.655 5.514h-3.36a11 11 0 0 0-.862-3.873 9 9 0 0 0 1.959-1.248 7.68 7.68 0 0 1 2.224 5.121zm-7.22-3.194v3.164H27.6a8.6 8.6 0 0 0-.862-3.676 7.7 7.7 0 0 1-2.459.511zm-5.143 9.19a6.9 6.9 0 0 1 1.832-1.13 9.7 9.7 0 0 0 2.263 2.9 7.6 7.6 0 0 1-4.095-1.759zM16.5 7.765h3.35a10.4 10.4 0 0 0 .9 3.873 8.4 8.4 0 0 0-2.028 1.248A7.8 7.8 0 0 1 16.5 7.765m7.249 3.165V7.765H20.4a8.9 8.9 0 0 0 .862 3.637 7.6 7.6 0 0 1 2.5-.472zm5.1 2.31a7.2 7.2 0 0 0-1.832-1.13 9.7 9.7 0 0 1-2.263 2.9 7.57 7.57 0 0 0 4.095-1.759zM31.5 7.765h-3.35a10.2 10.2 0 0 1-.862 3.873 9 9 0 0 1 1.959 1.248 7.88 7.88 0 0 0 2.224-5.121zm-7.21 3.165V7.765h3.31a8.45 8.45 0 0 1-.862 3.637 7.4 7.4 0 0 0-2.459-.472zM23.745.295a8.7 8.7 0 0 0-2.263 2.782 7.5 7.5 0 0 0 2.263.432zm.549 0a9.2 9.2 0 0 1 2.224 2.782 6.4 6.4 0 0 1-2.224.432zm-.549 14.4a8.7 8.7 0 0 1-2.263-2.782 6.5 6.5 0 0 1 2.263-.432zm.549 0a9.8 9.8 0 0 0 2.224-2.821 7.5 7.5 0 0 0-2.224-.432z"/></svg>