<svg xmlns="http://www.w3.org/2000/svg" viewBox="0 0 107 68" class="etiPartnerLogo css-9fmhsk" role="img" title="Discover"><title id="provider-discover">Discover</title><path d="M8.1 23.17h-.82v10.41h.82a5.8 5.8 0 0 0 4.19-1.25 5.43 5.43 0 0 0 1.7-4 5.3 5.3 0 0 0-1.7-3.92c-1.01-.89-2.21-1.24-4.19-1.24m93.9-3.08a1 1 0 1 0 1 1 1 1 0 0 0-1-1m.21 1.68-.39-.54v.54h-.33v-1.38h.45c.33 0 .52.15.52.42a.38.38 0 0 1-.3.39l.45.57z"/><path d="M101.86 20.64h-.06V21h.06c.16 0 .25-.06.25-.18s-.11-.18-.25-.18M94.7 23h-.94v4.77h.9c2 0 3-.85 3-2.44S96.61 23 94.7 23"/><path d="M0 0v68h23.65c53.48-9.25 82.87-29.79 83.35-30.13V0zm14.29 34.43a8.16 8.16 0 0 1-5.6 1.81H4.22V20.5h4.49c5 0 8.44 3.24 8.44 7.88a7.9 7.9 0 0 1-2.86 6.05m7.33 1.81h-3.06V20.5h3.06zm6.59.38a6.11 6.11 0 0 1-5.44-3l2-1.91a3.63 3.63 0 0 0 3.35 2.1 2.24 2.24 0 0 0 2.38-2.22 1.91 1.91 0 0 0-.94-1.59 12 12 0 0 0-2.12-.89c-2.88-1-3.86-2.15-3.86-4.32a4.62 4.62 0 0 1 4.9-4.51A6.84 6.84 0 0 1 33.09 22l-1.6 2.1A3.15 3.15 0 0 0 29 22.82c-1.32 0-2.29.75-2.29 1.74s.54 1.3 2.38 2c3.49 1.28 4.52 2.41 4.52 4.91a5.07 5.07 0 0 1-5.4 5.15m18.52-11.89A5.13 5.13 0 0 0 42.89 23a5.23 5.23 0 0 0-5.13 5.41A5.14 5.14 0 0 0 43 33.79a4.9 4.9 0 0 0 3.7-1.72v3.61a8.4 8.4 0 0 1-3.84.92 8.14 8.14 0 0 1-8.29-8.22A8.27 8.27 0 0 1 43 20.15a7.8 7.8 0 0 1 3.77 1zm9.33 12a8.37 8.37 0 1 1 8.35-8.37 8.36 8.36 0 0 1-8.35 8.39zm15.75-.1h-1.65L63.49 20.5h3.35L71 31.07l4.27-10.57h3.32zm16.86-13.46H83v3.49h5.42v2.67H83v4.25h5.63v2.66H80V20.5h8.69zm9.73 13.07-4.24-6.32h-.4v6.32H90.7V20.5h4.54c3.54 0 5.56 1.7 5.56 4.65a4.18 4.18 0 0 1-3.58 4.46l5 6.63zm3.58-14a1.21 1.21 0 1 1 1.19-1.2 1.2 1.2 0 0 1-1.17 1.24z"/><path d="M107 37.85S77.55 58.68 23.6 68H107zm-42.59-9.47A8.35 8.35 0 1 1 56.06 20a8.36 8.36 0 0 1 8.35 8.38" opacity="0.68"/></svg>