<svg xmlns="http://www.w3.org/2000/svg" viewBox="0 0 142 56" class="etiPartnerLogo css-sagpy3" role="img" title="Eurocard"><title id="provider-eurocard">Eurocard</title><path d="M138 50.12c0 1.87-.68 2.36-2.41 2.36h-7.19V46h7.19c1.73 0 2.41.5 2.41 2.37zm-1.43-7.42H124.3v13.15h12.22c4.06 0 5.48-1.32 5.48-4.57v-4c0-3.25-1.42-4.58-5.48-4.58m-17.39 4.65v.44c0 1-.4 1.38-1.5 1.38h-6.7V46h6.33c1.28 0 1.87.19 1.87 1.35m3.94.1v-.84c0-2.36-.84-3.91-4-3.91h-12.19v13.15h4.05v-3.41h6.37c1.26 0 1.66.45 1.66 1.83v1.58H123v-2.23c0-1.56-.52-2.26-1.26-2.61a3.7 3.7 0 0 0-.94-.29c1.85-.44 2.26-1.47 2.26-3.23M94 50.7l2.55-4.94 2.63 4.94zm6.69 2.83 1.26 2.32h4.51l-3.3-5.85-4-7.26h-5.29l-7.15 13.11h4.52v-.07l1.15-2.25h8.21zM82.45 56c4.07 0 4.87-1.74 4.87-4v-1.19h-4c0 1.63-.55 1.81-2.37 1.81h-4.38c-1.91 0-2.32-.73-2.32-2.63v-1.42c0-1.63.41-2.63 2.54-2.63h4.42c1.2 0 1.9.27 1.9 1.22v.36h4c0-3.72-.71-5-6.48-5h-4.71c-3.66 0-5.83.91-5.83 4.76v3.92c0 3.85 2.17 4.76 5.83 4.76zm-17.6-6c0 1.91-.4 2.63-2.32 2.63h-5.18C55.43 52.62 55 51.9 55 50v-1.43c0-1.63.4-2.63 2.54-2.63h4.74c2.14 0 2.54 1 2.54 2.63zm-1.66-7.43h-6.5c-3.65 0-5.82.91-5.82 4.76v3.92c0 3.84 2.13 4.75 5.82 4.75h6.5c3.65 0 5.82-.91 5.82-4.76v-3.92c0-3.85-2.17-4.76-5.82-4.76m-17.25 4.79v.44c0 1-.4 1.38-1.49 1.38h-6.7V46h6.33c1.28 0 1.86.19 1.86 1.35m4 .1v-.84c0-2.36-.84-3.91-4-3.91H33.7v13.15h4v-3.41h6.37c1.26 0 1.66.45 1.66 1.83v1.58h4v-2.23c0-2.16-1-2.69-2.21-2.9 1.86-.44 2.27-1.47 2.27-3.23M32.32 42.7h-4.05v7.6c0 1.67-.6 2.32-2.26 2.32H22c-1.66 0-2.26-.65-2.26-2.32v-7.6h-4.06v8.47c0 3.27 1.7 4.83 5.42 4.83h5.8c3.73 0 5.42-1.56 5.42-4.83zm-17.63 10H4.05v-2.1h9.86v-2.74H4.05v-2.1h10.41V42.7H0v13.15h14.69zM71.68 0a5.53 5.53 0 0 1 0 7.79l-9.35 9.36a5.51 5.51 0 0 1 0-7.79zm3.52 22a5.72 5.72 0 0 0 0 8.07l9.52-9.53a5.72 5.72 0 0 0 0-8.07zm-11.33-1-6.58-6.6a5.67 5.67 0 0 0 0 8L66 31.17a5.64 5.64 0 0 0 8 0l-6.71-6.72 10.2-10.22a4.91 4.91 0 0 0 0-6.95z"/></svg>