<svg xmlns="http://www.w3.org/2000/svg" viewBox="0 0 404 62" class="etiBrandLogo flightnetwork css-gbggq3"><title id="brand-flightnetwork">Flight Network</title><path fill="#fff" d="M105.22 28.6h-4.55v20.6H94V28.6h-3v-5.4h3v-1.32c0-3.19.9-5.52 2.72-7s4.55-2.19 8.22-2.12v5.54a4.87 4.87 0 0 0-3.34.8 4 4 0 0 0-.92 3.07v1.08h4.55zm10.85-14.13h-6.58v34.72h6.58zm6 4.53a3.7 3.7 0 0 1-.85-1.26 3.83 3.83 0 0 1 0-3 3.5 3.5 0 0 1 .85-1.26 4.31 4.31 0 0 1 5.76 0 3.9 3.9 0 0 1 .86 1.26 3.8 3.8 0 0 1 0 3 3.9 3.9 0 0 1-.86 1.26 4.33 4.33 0 0 1-5.76 0m6.13 30.17h-6.58v-26h6.58zM149 23.9a9.74 9.74 0 0 1 3.47 3v-3.71h6.62v26.19a14.1 14.1 0 0 1-1.45 6.44 10.83 10.83 0 0 1-4.37 4.5 14 14 0 0 1-7 1.67 15 15 0 0 1-9.08-2.58 9.54 9.54 0 0 1-4-7h6.49a4.83 4.83 0 0 0 2.21 2.84 7.9 7.9 0 0 0 4.13 1 6.7 6.7 0 0 0 2.5-.4 6.5 6.5 0 0 0 2.15-1.32 6.9 6.9 0 0 0 1.77-5.18v-4a10 10 0 0 1-3.5 3 10.5 10.5 0 0 1-5.05 1.23 11.14 11.14 0 0 1-6-1.69 11.8 11.8 0 0 1-4.3-4.76 15.4 15.4 0 0 1-1.57-7 15.2 15.2 0 0 1 1.57-7 11.6 11.6 0 0 1 4.3-4.7 11.4 11.4 0 0 1 6-1.64A11.15 11.15 0 0 1 149 23.9m2.53 8.17a6.67 6.67 0 0 0-2.53-2.63 6.9 6.9 0 0 0-3.43-.92 6.6 6.6 0 0 0-3.44.93 6.4 6.4 0 0 0-2.41 2.55 8.15 8.15 0 0 0-1 4.06 8.27 8.27 0 0 0 1 4.1 6.7 6.7 0 0 0 2.53 2.7 6.4 6.4 0 0 0 3.36.94 6.68 6.68 0 0 0 6-3.54 9.46 9.46 0 0 0 0-8.21m32-7.93a9.05 9.05 0 0 1 3.59 3.79 13.1 13.1 0 0 1 1.29 6v15.26h-6.59V34.83a6.7 6.7 0 0 0-1.55-4.76 5.57 5.57 0 0 0-4.22-1.67 5.66 5.66 0 0 0-4.3 1.67 6.6 6.6 0 0 0-1.57 4.76v14.34h-6.58v-34.7h6.58v12a8.65 8.65 0 0 1 3.38-2.66 11.45 11.45 0 0 1 4.69-1 10.76 10.76 0 0 1 5.26 1.3m17 4.49v12.56a2.4 2.4 0 0 0 .12 1 2.3 2.3 0 0 0 .51.89 3.2 3.2 0 0 0 2.14.58h3.05v5.52h-4.15q-8.31 0-8.31-8.07V28.59h-3.15v-5.4h3.11v-6.42h6.62v6.42h5.83v5.4zm41.78-2.84q2.86 2.94 2.86 8.19v15.22h-6.57V34.83a6.6 6.6 0 0 0-1.55-4.76 5.56 5.56 0 0 0-4.23-1.67 5.65 5.65 0 0 0-4.29 1.67 6.7 6.7 0 0 0-1.59 4.76v14.34h-6.6v-26h6.6v3.24a9.26 9.26 0 0 1 3.36-2.66 10.5 10.5 0 0 1 4.48-1 10 10 0 0 1 7.52 2.93m31.71 12.48h-19a6.56 6.56 0 0 0 2 4.44 6.16 6.16 0 0 0 4.28 1.59 5.36 5.36 0 0 0 5.21-3.19h7.09a11.75 11.75 0 0 1-4.32 6.17 12.7 12.7 0 0 1-7.86 2.4 13.65 13.65 0 0 1-6.79-1.57 12 12 0 0 1-4.68-4.77 14.6 14.6 0 0 1-1.66-7A14.84 14.84 0 0 1 250 29.1a11.5 11.5 0 0 1 4.6-4.7 14.86 14.86 0 0 1 13.45 0 11.3 11.3 0 0 1 4.56 4.53 13.65 13.65 0 0 1 1.62 6.74 14.3 14.3 0 0 1-.19 2.53zm-6.64-4.44a5.1 5.1 0 0 0-.43-2.23 5.3 5.3 0 0 0-1.37-1.83 6.55 6.55 0 0 0-4.37-1.52 6 6 0 0 0-4.1 1.48 6.5 6.5 0 0 0-2 4.1zm18.09-5.13v12.57a2.8 2.8 0 0 0 .12 1 2.55 2.55 0 0 0 .51.89 3.2 3.2 0 0 0 2.14.58h3v5.52h-4.13q-8.31 0-8.31-8.07V28.59h-3.1v-5.4h3.1v-6.42h6.62v6.42h5.82v5.4zm46.85-5.4-7.61 26h-7.08L312.93 31l-4.74 18.2h-7.14l-7.65-26h6.66l4.61 19.8 5-19.8h6.94l4.87 19.8 4.6-19.76zM339.13 48a12.06 12.06 0 0 1-4.73-4.72 14.13 14.13 0 0 1-1.72-7 14 14 0 0 1 1.78-7 12.2 12.2 0 0 1 4.82-4.72 14.82 14.82 0 0 1 13.62 0 12.33 12.33 0 0 1 4.81 4.72 13.84 13.84 0 0 1 1.77 7 13.54 13.54 0 0 1-1.8 7A12.6 12.6 0 0 1 352.8 48a14.2 14.2 0 0 1-6.91 1.66 13.73 13.73 0 0 1-6.76-1.66m10.11-5a6.34 6.34 0 0 0 2.52-2.61 8.84 8.84 0 0 0 .94-4.22 7.8 7.8 0 0 0-1.95-5.7 6.2 6.2 0 0 0-2.18-1.5 6.6 6.6 0 0 0-2.59-.5 6.5 6.5 0 0 0-2.57.5 6.1 6.1 0 0 0-2.15 1.5 8 8 0 0 0-1.9 5.7 8 8 0 0 0 1.86 5.7 6.07 6.07 0 0 0 4.67 2 6.9 6.9 0 0 0 3.35-.89m23.33-19a9.2 9.2 0 0 1 4.67-1.17v6.89h-1.73a6.7 6.7 0 0 0-4.68 1.46c-1 1-1.57 2.66-1.57 5.06v12.95h-6.57v-26h6.57v4a9.34 9.34 0 0 1 3.31-3.17m22.89 25.2-8.83-11.08v11.07h-6.58V14.47h6.58v19.75l8.73-11h8.55l-11.46 13 11.55 13zM31 0a31 31 0 1 0 21.9 9.07A31 31 0 0 0 31 0M18.88 44.1 9.41 29.86a8.09 8.09 0 0 1 11.2 2.26l.52.78 19.1-12.68a8.08 8.08 0 0 1 11.17 2.25z"/></svg>